<svg id="Layer_1" data-name="Layer 1" xmlns="http://www.w3.org/2000/svg" width="3.39cm" height="3.39cm" viewBox="0 0 96 96"><path d="M48,0A48,48,0,1,0,96,48,48,48,0,0,0,48,0ZM74.86,61.29c-1.35,9.79-12.63,13.76-15,13.88s-22.27-.26-26.69-1S21,65.62,21,59.29V35.47c0-8.75,10.37-13.67,14.91-13.88s5.33-.19,15.7,0c9,.17,13.18,10.9,13.35,13s.21,2.9.27,3.73,0,2.94,2.27,3,3,0,3.84,0c3.88.26,3.62,4.15,3.67,5S75.25,50,74.86,61.29Z"/><path d="M48.82,35h-11a3.17,3.17,0,1,0,0,6.34h11a3.17,3.17,0,0,0,0-6.34Z"/><path d="M57.15,54.42H37.78a3.17,3.17,0,1,0,0,6.34H57.15a3.17,3.17,0,1,0,0-6.34Z"/></svg>
